<svg width="688" height="614" viewBox="0 0 688 614" fill="none" xmlns="http://www.w3.org/2000/svg">
<path opacity="0.4" d="M624.607 65.4102C479.832 -3.48251 415.969 184.909 316.138 215.906C216.394 261.253 120.215 208.176 60.8283 253.674C-33.3064 325.794 8.01039 451.963 68.2737 505.05C154.694 581.18 308.272 553.78 467.012 471.462C665.894 368.329 751.55 125.817 624.607 65.4102Z" fill="#98C3E8"/>
<path opacity="0.2" d="M143.5 140.5C148.5 153 133.5 172.5 112 179C93.4998 184.593 75.4998 184 70.4998 171C66.0767 159.5 79.9998 147 95.9998 140.5C112 134 138.5 128 143.5 140.5Z" fill="#98C3E8"/>
<path opacity="0.2" d="M307 115C303.109 105.06 316.816 81.8658 333.802 76.7986C348.419 72.4383 362.111 62.1637 366 72.5C369.44 81.6437 358.909 102.325 346.26 107.415C333.612 112.505 310.891 124.94 307 115Z" fill="#98C3E8"/>
<path opacity="0.2" d="M295.792 607.215C291.901 597.276 303.816 581.866 320.802 576.799C335.419 572.438 349.614 572.985 353.503 583.321C356.944 592.465 345.908 602.325 333.26 607.415C320.612 612.505 299.684 617.155 295.792 607.215Z" fill="#98C3E8"/>
<path opacity="0.2" d="M471.573 556.55C463.478 537.52 489.279 495.235 524.573 485.55C554.942 477.216 603.982 494.26 612.072 514.05C619.229 531.555 572.353 528.66 546.074 538.393C519.795 548.126 479.667 575.579 471.573 556.55Z" fill="#98C3E8"/>
<mask id="mask0" mask-type="alpha" maskUnits="userSpaceOnUse" x="20" y="54" width="648" height="490">
<path d="M606.962 66.9443C466.39 4.86897 410.042 187.479 315.141 220.024C220.694 266.339 127.118 218.084 71.3641 263.416C-17.0125 335.272 25.8608 455.217 85.0062 504.486C169.824 575.139 316.342 544.544 466.39 461.093C654.38 356.539 730.22 121.374 606.962 66.9443Z" fill="#98C3E8"/>
</mask>
<g mask="url(#mask0)">
<rect x="-85.083" y="-26.5983" width="805.162" height="681.485" fill="url(#paint0_linear)"/>
<path d="M16.5085 190.467C90.336 227.697 172.998 331.904 172.998 381.662C172.998 442.869 43.221 536.678 -16.3037 589.893L491.655 622.705C473.566 541.726 427.894 361.7 455.688 321.716C491.655 269.974 637.207 282.594 718.816 292.059L740.902 61.7424C701.148 78.3588 612.177 126.105 563.589 113.485C518.615 101.803 432.34 51.4359 395.742 19.4651" stroke="white" stroke-opacity="0.2" stroke-width="15"/>
<path d="M206.441 133.677C226.634 238.844 281.531 431.637 339.583 361.469C412.149 273.76 469.57 160.179 523.837 235.269C567.25 295.34 631.107 413.843 657.61 465.585" stroke="white" stroke-opacity="0.2" stroke-width="15"/>
<path fill-rule="evenodd" clip-rule="evenodd" d="M434 195C434 199.418 430.418 203 426 203C421.582 203 418 199.418 418 195C418 190.582 421.582 187 426 187C430.418 187 434 190.582 434 195ZM103 368C107.418 368 111 364.418 111 360C111 355.582 107.418 352 103 352C98.5817 352 95 355.582 95 360C95 364.418 98.5817 368 103 368ZM277 470C281.418 470 285 466.418 285 462C285 457.582 281.418 454 277 454C272.582 454 269 457.582 269 462C269 466.418 272.582 470 277 470ZM551 352C555.418 352 559 348.418 559 344C559 339.582 555.418 336 551 336C546.582 336 543 339.582 543 344C543 348.418 546.582 352 551 352Z" fill="white" fill-opacity="0.6"/>
<circle cx="73" cy="447" r="18" stroke="white" stroke-opacity="0.4" stroke-width="8"/>
<circle cx="653" cy="170" r="18" stroke="white" stroke-opacity="0.4" stroke-width="8"/>
<circle cx="403" cy="403" r="18" stroke="white" stroke-opacity="0.4" stroke-width="8"/>
</g>
<g filter="url(#filter0_d)">
<rect x="453" y="124" width="88" height="88" rx="10" fill="white"/>
</g>
<path d="M493 184V172H501V184H511V168H517L497 150L477 168H483V184H493Z" fill="#5A98D0"/>
<path d="M440.423 0.756439H412.992C409.207 0.756439 406.139 3.04222 406.139 5.86187V26.2951C406.139 29.1147 409.207 31.4005 412.992 31.4005H440.423C444.208 31.4005 447.277 29.1147 447.277 26.2951V5.86187C447.277 3.04222 444.208 0.756439 440.423 0.756439Z" fill="#56CCF2"/>
<path d="M437 15.0074H432.83L436.07 12.5772L434.66 11.5121L430 15.0074H428V13.5073L432.66 10.012L431.24 8.95447L428 11.3846V8.25693H426V11.3846L422.76 8.95447L421.34 10.012L426 13.5073V15.0074H424L419.34 11.5121L417.93 12.5772L421.17 15.0074H417V16.5075H421.17L417.93 18.9376L419.34 20.0027L424 16.5075H426V18.0076L421.34 21.5028L422.76 22.5604L426 20.1302V23.2579H428V20.1302L431.24 22.5604L432.66 21.5028L428 18.0076V16.5075H430L434.66 20.0027L436.07 18.9376L432.83 16.5075H437V15.0074Z" fill="white"/>
<path d="M614.284 78.0114H586.854C583.069 78.0114 580 80.2972 580 83.1168V103.55C580 106.37 583.069 108.656 586.854 108.656H614.284C618.07 108.656 621.138 106.37 621.138 103.55V83.1168C621.138 80.2972 618.07 78.0114 614.284 78.0114Z" fill="#F2C94C"/>
<path d="M610 90.7622C610 87.012 606 84.0118 601 84.0118C596 84.0118 592 87.012 592 90.7622C592 93.0874 593.6 95.1875 596 96.3876V98.2627C596 99.2378 596.8 100.063 598 100.363V100.513C598 101.788 599.3 102.763 601 102.763C602.7 102.763 604 101.788 604 100.513V100.363C605.2 100.063 606 99.2378 606 98.2627V96.3876C608.4 95.1875 610 93.0874 610 90.7622ZM594 90.7622C594 87.8371 597.1 85.5119 601 85.5119C604.9 85.5119 608 87.8371 608 90.7622C608 93.3874 605.4 95.5626 602 95.9376V94.0625L603.7 92.7874C604.1 92.4874 604.1 92.0373 603.7 91.7373C603.3 91.4373 602.7 91.4373 602.3 91.7373L601 92.7124L599.7 91.7373C599.3 91.4373 598.7 91.4373 598.3 91.7373C597.9 92.0373 597.9 92.4874 598.3 92.7874L600 94.0625V95.9376C596.6 95.5626 594 93.3874 594 90.7622ZM601 101.263C600.4 101.263 600 100.963 600 100.513H602C602 100.963 601.6 101.263 601 101.263ZM604 98.2627C604 98.7128 603.6 99.0128 603 99.0128H599C598.4 99.0128 598 98.7128 598 98.2627V97.1377C598.9 97.3627 599.9 97.5127 601 97.5127C602.1 97.5127 603.1 97.3627 604 97.1377V98.2627Z" fill="white"/>
<path d="M394.284 78.0114H366.854C363.069 78.0114 360 80.2972 360 83.1168V103.55C360 106.37 363.069 108.655 366.854 108.655H394.284C398.07 108.655 401.138 106.37 401.138 103.55V83.1168C401.138 80.2972 398.07 78.0114 394.284 78.0114Z" fill="#F58A8A"/>
<g clip-path="url(#clip0)">
<path d="M387 90.0122H386V88.5121C386 86.442 383.76 84.7619 381 84.7619C378.24 84.7619 376 86.442 376 88.5121V90.0122H375C373.9 90.0122 373 90.6873 373 91.5123V99.0128C373 99.8378 373.9 100.513 375 100.513H387C388.1 100.513 389 99.8378 389 99.0128V91.5123C389 90.6873 388.1 90.0122 387 90.0122ZM381 96.7626C379.9 96.7626 379 96.0876 379 95.2625C379 94.4375 379.9 93.7625 381 93.7625C382.1 93.7625 383 94.4375 383 95.2625C383 96.0876 382.1 96.7626 381 96.7626ZM384.1 90.0122H377.9V88.5121C377.9 87.2295 379.29 86.187 381 86.187C382.71 86.187 384.1 87.2295 384.1 88.5121V90.0122Z" fill="white"/>
</g>
<path d="M568.284 0.756439H540.854C537.069 0.756439 534 3.04222 534 5.86187V26.2951C534 29.1147 537.069 31.4005 540.854 31.4005H568.284C572.07 31.4005 575.138 29.1147 575.138 26.2951V5.86187C575.138 3.04222 572.07 0.756439 568.284 0.756439Z" fill="#6FCF97"/>
<path d="M560.311 11.9295H543.979V19.5851H560.311V11.9295Z" fill="white"/>
<path d="M564.713 13.4529L561.108 14.5893V16.9576L564.713 18.094H566.02V13.4529H564.713Z" fill="white"/>
<path d="M500.39 207C499.274 211.364 500.787 213.88 501.978 214.5C504.34 215.73 506.977 217.27 506.977 217.27C506.977 217.27 523.406 245.414 528.168 247.429C533.724 249.778 546.422 251 546.422 251L551.978 239.889C551.978 239.889 539.279 237.111 533.724 235.921C529.98 235.118 513.486 217.27 513.486 217.27L516.66 211.714H510.708C506.343 208.54 503.977 202 503.977 202C503.977 202 501.153 204.02 500.39 207Z" fill="url(#paint1_linear)"/>
<path d="M565.478 257.5C563.478 255.5 551.978 252.333 546.478 251L551.978 240C554.144 240 560.478 239.5 568.478 237.5C578.478 235 581.978 226 593.478 235.5C602.678 243.1 618.644 276.333 625.478 292C614.731 302.243 607.594 305.569 593.478 308.5C592.644 306.833 590.178 301.2 586.978 292C582.978 280.5 570.478 280.5 568.478 276.5C566.478 272.5 567.978 260 565.478 257.5Z" fill="url(#paint2_linear)"/>
<path d="M601.478 371C597.878 363 597.811 325 596.478 307.5C608.671 305.103 615.111 302.016 625.478 291.5C625.478 291.5 642.478 299.5 641.478 318C640.478 336.5 647.998 345.841 652.478 352C656.478 357.5 665.978 369.167 670.978 377L665.978 386.5C660.478 380.667 644.378 368.8 635.978 362C627.578 355.2 624.811 338.167 623.478 329C622.644 338.667 618.478 356.4 620.478 362C622.478 367.6 643.978 384.5 652.478 393L649.478 401.5C634.978 394.667 605.078 379 601.478 371Z" fill="url(#paint3_linear)"/>
<path d="M559.477 223.5C559.877 221.9 559.311 217.167 559.978 215.5C564.778 216.3 567.477 219.667 568.477 221C569.477 220.833 570.912 220.369 571.477 221.5C571.977 222.5 571.477 224.5 569.977 226L573.477 235.5C571.819 236.577 570.809 236.939 568.977 237.5C569.977 235 569.477 233 568.977 232C565.377 234.8 563.977 234.667 562.477 234.5L560.977 228L558.478 228.5C558.978 227.667 559.077 225.1 559.477 223.5Z" fill="url(#paint4_linear)"/>
<path d="M568.477 221C566.477 218.2 561.644 216.167 559.477 215.5C555.477 212.5 557.477 206 566.977 203C576.477 200 580.477 208 582.477 210C584.477 212 585.477 218.5 594.477 222.5C603.477 226.5 602.977 221.5 608.477 221.5C613.977 221.5 616.477 225 615.477 228C614.477 231 613.977 234.5 619.977 238.5C625.977 242.5 620.477 248 619.977 254C619.477 260 611.477 257 602.977 257C594.477 257 595.977 257 594.477 251.5C592.977 246 590.477 244 587.477 242.5C584.477 241 577.477 242 575.977 240.5C574.777 239.3 571.477 230.333 569.977 226C570.644 225 571.877 222.7 571.477 221.5C571.077 220.3 569.31 220.667 568.477 221Z" fill="#F2994A"/>
<path d="M549.478 281.5L573.478 280C576.278 280.4 580.978 283.833 582.978 285.5C582.311 287 580.378 290 577.978 290C575.578 290 557.978 287 549.478 285.5H547.478V278L549.478 281.5Z" fill="url(#paint5_linear)"/>
<path d="M547.478 289V272H538.978V289H547.478Z" fill="#F2C94C"/>
<path d="M665.978 415.5C663.578 415.1 653.811 405.833 649.478 401.5L652.478 393C654.478 393.833 658.678 395.3 659.478 396.5C660.478 398 668.978 416 665.978 415.5Z" fill="#5A98D0"/>
<path d="M677.978 404.5C676.778 402.5 669.478 392.833 665.978 386.5L670.978 377C673.311 379 673.478 379 675.978 382.5C677.14 384.127 679.478 407 677.978 404.5Z" fill="#5A98D0"/>
<path opacity="0.2" d="M626.478 314.5L623.478 329.5C623.978 335 626.978 348.5 631.978 358C625.978 339 627.978 324.833 626.478 314.5Z" fill="black"/>
<path d="M196 539L194.5 534L202.5 532.5C206.333 534.5 213.7 538.9 212.5 540.5C212.1 541.3 201.333 539.833 196 539Z" fill="#D06262"/>
<path d="M155.5 492L160 499.5C159.667 504.667 158.6 514.8 157 514C155.4 513.2 150.333 500.333 148 494L155.5 492Z" fill="#D06262"/>
<path d="M129.328 446.993C123.999 441.458 119.156 431.024 117.401 426.5C122.529 424.019 133.924 418.352 138.484 415.522C143.044 412.693 151.693 406.274 155.447 403.418C157.637 405.392 164.01 410.262 171.981 413.948C192.452 423.613 204.145 436.095 208.185 447.272C211.418 456.213 198.175 469.449 190.651 474.994C186.292 467.586 183.669 464.59 178.501 457.534L180.257 449.338L169.933 446.271C171.459 448.307 176.461 455.01 184.258 465.54C198.328 483.125 203.2 513.172 203.878 525.997C201.253 526.573 194.79 527.636 189.937 527.279C189.364 521.05 181.559 507.211 174.106 494.959C172.59 496.773 170.489 498.942 169.265 499.054C163.07 497.214 161.151 489.089 160.966 485.256L165.648 481.335C165.006 480.31 164.406 479.349 163.856 478.463C156.193 466.113 135.99 453.912 129.328 446.993Z" fill="#1F3F68"/>
<path d="M157.347 402.239C142.813 413.451 112.728 433.557 108.662 424.291C103.58 412.708 104.576 412.616 101.766 409.36C98.9555 406.103 98.2686 398.635 96.998 395.739C96.3594 394.284 91.211 387.917 87.0954 380.08C87.0954 380.08 86.9717 379.853 86.7625 379.439C83.8406 373.737 81.5329 367.32 81.9125 361.477C82.2029 352.914 88.7162 347.391 88.7162 347.391C92.5981 343.253 96.2389 342.558 97.5 342.669L97.5233 342.685C100.558 344.749 105.045 347.8 106.634 347.654C108.228 347.508 110.5 344.5 112 343C119.606 343.807 121.929 341.859 127.874 342.669C135.205 343.669 155 354 170.5 326.5C172.04 326.861 175.511 328.229 178 328C169.5 353 162 360.781 155 363.231C149.628 365.112 145.395 365.636 142.052 365.602C141.438 368.863 140.623 374.224 139.263 379.691C142.058 384.807 145.012 389.505 147.332 391.612C153.358 397.083 160.163 400.102 157.347 402.239Z" fill="white"/>
<path d="M157.062 431.89L170.477 446.723L180.258 449.338L179.674 453.911C181.919 451.027 184.797 444.101 178.346 439.472C171.895 434.844 161.469 432.489 157.062 431.89Z" fill="black" fill-opacity="0.2"/>
<path d="M165.625 481.313L173.923 495.111L172.567 496.742C171.342 494.344 168.126 492.129 165.408 489.869C163.233 488.061 162.777 484.922 162.821 483.579L165.625 481.313Z" fill="black" fill-opacity="0.2"/>
<path d="M127.067 406.028C112.87 404.522 95.6038 389.675 88.7456 382.439C104.604 396.546 123.032 400.374 128.87 398.331C133.54 396.696 137.12 384.527 139.001 379.5L142.799 386.003C143.471 393.306 141.265 407.534 127.067 406.028Z" fill="black" fill-opacity="0.2"/>
<path d="M121.967 377.877C118.82 378.452 110.674 371.551 107.019 368.206C120.474 378.014 120.5 373 137.5 361C136.762 362.072 129.5 376.5 121.967 377.877Z" fill="black" fill-opacity="0.2"/>
<path d="M142.5 363.5C140.787 363.156 139.296 362.576 137.5 361L139 357.5C138.833 356.667 138.6 354.8 139 354C139.4 353.2 141 352.333 141.5 352L141 354.5L143.5 351.5L147.5 355L147 358.5L144 360L142.5 363.5Z" fill="#F2994A"/>
<path d="M179 323L178 328C176.4 328.4 172.167 327.167 170.5 326.5C171 325 172.6 321 173 319C173.4 317 177.167 314.833 179 314H181L179 317.5V323Z" fill="#F2994A"/>
<path d="M94.9997 332.5C95.7997 334.1 97.9997 337.5 98.9997 339C99.6664 337.667 100.6 334.7 98.9997 333.5C97.3997 332.3 95.9997 330.333 95.4998 329.5C95.9998 329.167 97.2998 328.5 98.4998 328.5C97.6998 322.5 101.833 320.333 104 320L112.5 319.5L113 322C116.166 319 121.9 312.5 119.5 310.5C116.5 308 107.5 314.5 101.5 314.5C95.4998 314.5 92.9997 317.5 91.4997 320.5C89.9997 323.5 93.9997 330.5 94.9997 332.5Z" fill="#316099"/>
<path d="M106.5 348C104.9 348 100.333 344.833 97.5 343C98.8333 342.333 99.5 339.8 99.5 339C99.5 338 100.5 334 99.5 333.5C98.5 333 95.5 331 95.5 330C95.5 329.2 97.5 329 98.5 329C98.1667 327.333 98.1 323.5 100.5 321.5C102.9 319.5 109.5 319.333 112.5 319.5C112.667 320.167 113.3 323 114.5 329C115.7 335 113 337.833 111.5 338.5L112 343C110.833 344.5 108.1 348 106.5 348Z" fill="#F2994A"/>
<path d="M202.5 532.5L202 526.5C198.469 527.446 196.371 527.613 192.5 527.5L194.5 534L202.5 532.5Z" fill="#98C3E8"/>
<path d="M160 499.5L166 497.5C163.322 494.423 162.421 492.668 161.5 489.5L155.5 492L160 499.5Z" fill="#98C3E8"/>
<rect opacity="0.8" x="187" y="252" width="266.284" height="189.301" rx="5" fill="url(#paint6_linear)"/>
<path d="M187 257C187 254.239 189.239 252 192 252H263.983V441.301H192C189.239 441.301 187 439.063 187 436.301V257Z" fill="white"/>
<circle cx="199" cy="264" r="4" fill="#FA9595"/>
<circle cx="212" cy="264" r="4" fill="#FDF397"/>
<circle cx="224" cy="264" r="4" fill="#C1FEBB"/>
<path opacity="0.4" fill-rule="evenodd" clip-rule="evenodd" d="M196 358H254V365H196V358ZM196 372H254V379H196V372ZM235 388H196V395H235V388Z" fill="#5A98D0"/>
<path opacity="0.1" fill-rule="evenodd" clip-rule="evenodd" d="M373 277H431V284H373V277ZM373 291H431V298H373V291ZM412 307H373V314H412V307Z" fill="black"/>
<g filter="url(#filter1_d)">
<rect x="179" y="278" width="81" height="50" rx="5" fill="#56CCF2"/>
</g>
<path d="M203.344 300.136C202.688 299.24 201.76 298.792 200.544 298.792C199.44 298.792 198.512 299.192 197.728 300.008C196.944 300.824 196.56 301.816 196.56 303C196.56 304.168 196.944 305.176 197.728 305.992C198.512 306.808 199.44 307.208 200.544 307.208C201.76 307.208 202.688 306.76 203.344 305.848V307H205.072V299H203.344V300.136ZM199.008 304.84C198.528 304.344 198.288 303.736 198.288 303C198.288 302.264 198.528 301.656 199.008 301.176C199.488 300.68 200.096 300.44 200.816 300.44C201.536 300.44 202.144 300.68 202.624 301.176C203.104 301.656 203.344 302.264 203.344 303C203.344 303.736 203.104 304.344 202.624 304.84C202.144 305.32 201.536 305.56 200.816 305.56C200.096 305.56 199.488 305.32 199.008 304.84ZM212.078 295.592C209.71 295.448 208.462 296.648 208.462 298.84V299H207.246V300.664H208.462V307H210.19V300.664H212.078V299H210.19V298.84C210.19 297.672 210.814 297.144 212.078 297.256V295.592ZM215.617 299H213.889V307H215.617V302.968C215.617 302.152 215.857 301.56 216.353 301.208C216.849 300.84 217.425 300.68 218.081 300.728V298.856C216.881 298.856 216.049 299.352 215.617 300.344V299ZM221.79 297.48C222.238 297.032 222.238 296.36 221.806 295.928C221.374 295.48 220.67 295.48 220.238 295.928C219.806 296.36 219.806 297.032 220.238 297.48C220.686 297.912 221.358 297.912 221.79 297.48ZM221.886 307V299H220.158V307H221.886ZM231.028 300.136C230.372 299.24 229.444 298.792 228.228 298.792C227.124 298.792 226.196 299.192 225.412 300.008C224.628 300.824 224.244 301.816 224.244 303C224.244 304.168 224.628 305.176 225.412 305.992C226.196 306.808 227.124 307.208 228.228 307.208C229.444 307.208 230.372 306.76 231.028 305.848V307H232.756V299H231.028V300.136ZM226.692 304.84C226.212 304.344 225.972 303.736 225.972 303C225.972 302.264 226.212 301.656 226.692 301.176C227.172 300.68 227.78 300.44 228.5 300.44C229.22 300.44 229.828 300.68 230.308 301.176C230.788 301.656 231.028 302.264 231.028 303C231.028 303.736 230.788 304.344 230.308 304.84C229.828 305.32 229.22 305.56 228.5 305.56C227.78 305.56 227.172 305.32 226.692 304.84ZM239.779 298.792C238.643 298.792 237.827 299.208 237.299 300.024V299H235.571V307H237.299V302.712C237.299 301.16 238.115 300.408 239.331 300.408C240.435 300.408 241.123 301.064 241.123 302.264V307H242.851V302.088C242.851 300.04 241.619 298.792 239.779 298.792Z" fill="white"/>
<rect x="281" y="270" width="79" height="77" rx="5" fill="#EB5757"/>
<g clip-path="url(#clip1)">
<path d="M312 295V323L334 309L312 295Z" fill="white"/>
</g>
<g filter="url(#filter2_d)">
<rect x="281" y="360" width="154" height="63" rx="5" fill="#6FCF97"/>
</g>
<path d="M294.5 405C304 398.5 308 390 326 390C344 390 345.58 400 356.5 400C369.5 400 382 380.5 396 380.5C410 380.5 413.5 390.5 421 391" stroke="black" stroke-opacity="0.1" stroke-width="2" stroke-linecap="round" stroke-linejoin="round"/>
<path d="M294 405.5C303.5 399 306 380 324 380C342 380 346.08 396.5 357 396.5C370 396.5 381.5 369.5 395.5 369.5C409.5 369.5 414 390.5 421.5 391" stroke="white" stroke-width="2" stroke-linecap="round" stroke-linejoin="round"/>
<defs>
<filter id="filter0_d" x="403" y="74" width="188" height="188" filterUnits="userSpaceOnUse" color-interpolation-filters="sRGB">
<feFlood flood-opacity="0" result="BackgroundImageFix"/>
<feColorMatrix in="SourceAlpha" type="matrix" values="0 0 0 0 0 0 0 0 0 0 0 0 0 0 0 0 0 0 127 0"/>
<feOffset/>
<feGaussianBlur stdDeviation="25"/>
<feColorMatrix type="matrix" values="0 0 0 0 0.0627451 0 0 0 0 0.439216 0 0 0 0 0.694118 0 0 0 0.25 0"/>
<feBlend mode="normal" in2="BackgroundImageFix" result="effect1_dropShadow"/>
<feBlend mode="normal" in="SourceGraphic" in2="effect1_dropShadow" result="shape"/>
</filter>
<filter id="filter1_d" x="174" y="273" width="101" height="70" filterUnits="userSpaceOnUse" color-interpolation-filters="sRGB">
<feFlood flood-opacity="0" result="BackgroundImageFix"/>
<feColorMatrix in="SourceAlpha" type="matrix" values="0 0 0 0 0 0 0 0 0 0 0 0 0 0 0 0 0 0 127 0"/>
<feOffset dx="5" dy="5"/>
<feGaussianBlur stdDeviation="5"/>
<feColorMatrix type="matrix" values="0 0 0 0 0.0627451 0 0 0 0 0.439216 0 0 0 0 0.694118 0 0 0 0.2 0"/>
<feBlend mode="normal" in2="BackgroundImageFix" result="effect1_dropShadow"/>
<feBlend mode="normal" in="SourceGraphic" in2="effect1_dropShadow" result="shape"/>
</filter>
<filter id="filter2_d" x="271" y="354" width="174" height="83" filterUnits="userSpaceOnUse" color-interpolation-filters="sRGB">
<feFlood flood-opacity="0" result="BackgroundImageFix"/>
<feColorMatrix in="SourceAlpha" type="matrix" values="0 0 0 0 0 0 0 0 0 0 0 0 0 0 0 0 0 0 127 0"/>
<feOffset dy="4"/>
<feGaussianBlur stdDeviation="5"/>
<feColorMatrix type="matrix" values="0 0 0 0 0.435294 0 0 0 0 0.811765 0 0 0 0 0.592157 0 0 0 0.2 0"/>
<feBlend mode="normal" in2="BackgroundImageFix" result="effect1_dropShadow"/>
<feBlend mode="normal" in="SourceGraphic" in2="effect1_dropShadow" result="shape"/>
</filter>
<linearGradient id="paint0_linear" x1="375.616" y1="-72.3187" x2="337.792" y2="598.507" gradientUnits="userSpaceOnUse">
<stop stop-color="#D1ECFF"/>
<stop offset="1" stop-color="#1070B1"/>
</linearGradient>
<linearGradient id="paint1_linear" x1="559.735" y1="214.576" x2="507.964" y2="248.395" gradientUnits="userSpaceOnUse">
<stop stop-color="#FFF8E1"/>
<stop offset="1" stop-color="#FFCC80"/>
</linearGradient>
<linearGradient id="paint2_linear" x1="585.978" y1="231.241" x2="585.978" y2="308.5" gradientUnits="userSpaceOnUse">
<stop stop-color="#AF6CED"/>
<stop offset="1" stop-color="#5E199D"/>
</linearGradient>
<linearGradient id="paint3_linear" x1="633.728" y1="291.5" x2="633.728" y2="401.5" gradientUnits="userSpaceOnUse">
<stop stop-color="#EB5757"/>
<stop offset="1" stop-color="#872727"/>
</linearGradient>
<linearGradient id="paint4_linear" x1="575.716" y1="221.146" x2="557.595" y2="228.755" gradientUnits="userSpaceOnUse">
<stop stop-color="#FFF8E1"/>
<stop offset="1" stop-color="#FFCC80"/>
</linearGradient>
<linearGradient id="paint5_linear" x1="588.276" y1="281.08" x2="576.596" y2="302.359" gradientUnits="userSpaceOnUse">
<stop stop-color="#FFF8E1"/>
<stop offset="1" stop-color="#FFCC80"/>
</linearGradient>
<linearGradient id="paint6_linear" x1="193.393" y1="321.155" x2="498.893" y2="354.655" gradientUnits="userSpaceOnUse">
<stop offset="0.127122" stop-color="white"/>
<stop offset="0.972261" stop-color="white" stop-opacity="0.8"/>
</linearGradient>
<clipPath id="clip0">
<rect x="369" y="84.0118" width="24" height="18.0012" fill="white"/>
</clipPath>
<clipPath id="clip1">
<rect x="296" y="285" width="48" height="48" fill="white"/>
</clipPath>
</defs>
</svg>
