<svg width="225" height="139" viewBox="0 0 225 139" fill="none" xmlns="http://www.w3.org/2000/svg">
<path d="M178.522 66.7629C178.53 75.946 176.606 85.0294 172.874 93.4311C169.141 101.833 163.683 109.367 156.848 115.552C154.946 117.274 152.947 118.886 150.861 120.382C148.183 122.301 145.363 124.017 142.427 125.517H142.396C141.77 125.844 141.134 126.154 140.493 126.455C140.2 126.598 139.913 126.73 139.616 126.863C137.758 127.708 135.854 128.467 133.901 129.14C132.362 129.649 130.782 130.159 129.186 130.577C119.983 133.008 110.363 133.458 100.971 131.896C99.8574 131.713 98.7596 131.504 97.6669 131.265L96.7435 131.056C93.956 130.409 91.2141 129.582 88.5353 128.58C86.9792 127.999 85.4539 127.362 83.9593 126.669C83.3796 126.399 82.7999 126.124 82.2304 125.838C81.8406 125.645 81.4558 125.446 81.071 125.247C70.6328 119.803 61.839 111.702 55.5902 101.772C49.3414 91.8427 45.862 80.4422 45.5084 68.7382C45.1549 57.0341 47.9398 45.447 53.578 35.1634C59.2162 24.8798 67.5051 16.2691 77.5959 10.2132C87.6868 4.15723 99.2169 0.873616 111.006 0.698548C122.795 0.523481 134.418 3.46327 144.687 9.21686C154.956 14.9705 163.5 23.3311 169.445 33.4427C175.391 43.5543 178.523 55.0536 178.522 66.7629Z" fill="url(#paint0_linear)"/>
<path d="M129.432 71.5419C133.669 75.8725 146.012 92.7265 146.012 92.7265L138.43 103.767L131.612 81.8336L129.432 71.5419Z" fill="url(#paint1_linear)"/>
<path d="M142.396 125.553C141.77 125.879 141.134 126.19 140.492 126.491C140.2 126.633 139.913 126.766 139.615 126.898C137.758 127.744 135.853 128.503 133.9 129.176C132.361 129.685 130.781 130.195 129.186 130.612C119.983 133.044 110.363 133.494 100.97 131.932C99.857 131.749 98.7591 131.54 97.6664 131.3C93.665 134.041 89.9713 136.359 87.5243 137.414L87.7243 135.718L88.5554 128.62L90.4792 112.108L98.1025 104.786L80.9629 106.106C80.9629 106.106 82.7635 81.2936 89.7918 76.1885C96.82 71.0834 104.192 66.5082 104.192 66.5082C105.071 67.0842 106.04 67.5128 107.06 67.7768C109.497 68.446 112.031 68.7027 114.555 68.536C117.561 68.3984 120.567 65.6217 120.711 65.479C120.711 65.479 125.43 66.4114 129.432 71.5623C131.428 74.2139 132.86 77.2403 133.644 80.4581C134.629 84.2232 136.378 93.017 138.369 103.64C139.672 110.477 141.041 118.059 142.396 125.553Z" fill="url(#paint2_linear)"/>
<path d="M146.012 92.7469L153.328 101.261L179.055 75.898L180.03 70.7063L185.16 66.2788L182.877 73.0296V81.8234C182.877 81.8234 163.034 113.769 157.565 115.414C151.168 117.345 138.44 103.757 138.44 103.757L146.012 92.7469Z" fill="url(#paint3_linear)"/>
<path d="M119.306 104.389L125.272 118.655L132.982 115.363L127.329 101.403L119.306 104.389Z" fill="#7E57C2"/>
<path d="M127.616 113.606C126.657 114.39 125.225 114.207 123.45 114.298C121.066 114.361 118.778 115.251 116.986 116.815C114.601 118.807 107.932 124.02 101.263 128.778C100.052 129.639 98.8413 130.49 97.6717 131.326C93.6702 134.067 89.9766 136.385 87.5295 137.439C86.8862 137.757 86.1915 137.958 85.4775 138.036C82.0506 138.122 81.317 130.989 81.1066 125.298C81.04 123.408 81.0246 121.681 80.9886 120.433C80.845 115.44 80.9886 106.167 80.9886 106.167L98.1283 104.842L96.3122 116.632L95.9941 118.716V118.731L101.124 116.846L101.283 116.79L119.495 110.07L120.752 107.915L121.552 109.952H121.629L129.427 108.934C129.427 108.934 129.56 112.021 127.616 113.606Z" fill="url(#paint4_linear)"/>
<path d="M123.681 39.2503C123.234 38.0377 122.85 37.2123 122.737 36.9678V36.9066C122.737 36.9066 122.342 37.8747 119.366 37.6403C116.391 37.4059 115.406 35.9386 115.406 35.9386C115.406 35.9386 116.34 39.1178 112.795 40.4782C109.383 41.7927 108.039 40.9418 107.947 40.8807C108.126 41.0743 110.794 43.907 109.024 46.1539C107.193 48.4823 103.073 48.0237 103.073 48.0237V48.0543C103.592 49.2203 104.172 50.3581 104.812 51.4628C105.151 52.0436 105.484 52.5786 105.838 53.0779V53.1136C106.747 54.5814 107.974 55.8294 109.429 56.7666C108.79 60.4951 106.952 63.9178 104.192 66.5234C105.12 67.0046 106.078 67.4283 107.059 67.792C108.973 68.5104 111.543 69.2237 113.836 69.025C116.493 68.7428 118.948 67.4855 120.721 65.4993L119.546 61.0209L118.489 56.9857C128.041 54.5656 125.415 44.0395 123.681 39.2503ZM117.956 57.1334L118.125 57.0927L118.397 57.0163C118.001 57.1863 117.583 57.2995 117.155 57.3525C117.376 57.2965 117.602 57.2353 117.838 57.164L117.956 57.1334Z" fill="url(#paint5_linear)"/>
<path d="M129.432 36.7742C125.492 40.3712 123.789 39.3573 123.681 39.2605V39.2503C123.235 38.0378 122.85 37.2124 122.743 36.9678L122.717 36.9067C122.717 36.9067 122.317 37.8747 119.341 37.6404C116.366 37.406 115.386 35.9387 115.386 35.9387C115.386 35.9387 116.32 39.1179 112.775 40.4782C109.358 41.7927 108.014 40.9419 107.927 40.8807C108.107 41.0692 110.774 43.902 109.004 46.1489C107.173 48.4772 103.053 48.0238 103.053 48.0238V48.0493C103.572 49.217 104.152 50.3565 104.792 51.4628C105.134 52.0403 105.476 52.5787 105.818 53.078V53.1136C105.818 53.1136 104.413 55.8598 101.904 55.8037C99.3956 55.7477 99.3392 53.2563 99.3392 53.2563C99.3392 53.2563 97.5642 56.4355 92.0801 53.3734C86.5961 50.3114 90.2538 45.8737 90.2538 45.8737C90.2538 45.8737 86.3652 42.9187 86.3652 38.4912C86.3652 34.0637 92.4187 30.696 92.4187 30.696C92.4187 30.696 90.2538 25.5552 93.9064 22.7224C97.5591 19.8897 103.048 21.8104 103.048 21.8104C103.048 21.8104 102.941 15.2329 108.532 15.3399C114.124 15.4469 115.391 18.8452 115.391 18.8452C115.391 18.8452 120.419 14.9833 125.395 18.621C130.371 22.2588 128.324 28.602 128.324 28.602C128.324 28.602 133.541 33.0295 129.432 36.7742Z" fill="url(#paint6_linear)"/>
<path opacity="0.15" d="M119.587 61.0057C117.202 60.2567 112.959 57.3985 112.959 57.3985C114.633 57.5742 116.325 57.4848 117.971 57.1335L118.14 57.0928L118.469 56.996H118.515L119.587 61.0057Z" fill="black"/>
<path opacity="0.15" d="M100.416 89.5474L98.1028 104.832L96.2868 116.622L92.0596 120.112L101.258 116.795C101.258 116.795 98.8723 110.029 100.416 89.5474Z" fill="black"/>
<path opacity="0.15" d="M97.6562 131.3C98.749 131.54 99.8468 131.749 100.96 131.932C101.016 130.888 101.119 129.833 101.263 128.778L97.6562 131.3Z" fill="black"/>
<path d="M217.284 44H189.854C186.069 44 183 47.0475 183 50.8068V78.0493C183 81.8086 186.069 84.8561 189.854 84.8561H217.284C221.07 84.8561 224.138 81.8086 224.138 78.0493V50.8068C224.138 47.0475 221.07 44 217.284 44Z" fill="#F2C94C"/>
<path d="M213 61C213 56 209 52 204 52C199 52 195 56 195 61C195 64.1 196.6 66.9 199 68.5V71C199 72.3 199.8 73.4 201 73.8V74C201 75.7 202.3 77 204 77C205.7 77 207 75.7 207 74V73.8C208.2 73.4 209 72.3 209 71V68.5C211.4 66.9 213 64.1 213 61ZM197 61C197 57.1 200.1 54 204 54C207.9 54 211 57.1 211 61C211 64.5 208.4 67.4 205 67.9V65.4L206.7 63.7C207.1 63.3 207.1 62.7 206.7 62.3C206.3 61.9 205.7 61.9 205.3 62.3L204 63.6L202.7 62.3C202.3 61.9 201.7 61.9 201.3 62.3C200.9 62.7 200.9 63.3 201.3 63.7L203 65.4V67.9C199.6 67.4 197 64.5 197 61ZM204 75C203.4 75 203 74.6 203 74H205C205 74.6 204.6 75 204 75ZM207 71C207 71.6 206.6 72 206 72H202C201.4 72 201 71.6 201 71V69.5C201.9 69.8 202.9 70 204 70C205.1 70 206.1 69.8 207 69.5V71Z" fill="white"/>
<path d="M34.2844 44H6.85379C3.06855 44 0 47.0475 0 50.8068V78.0493C0 81.8086 3.06855 84.8561 6.85379 84.8561H34.2844C38.0696 84.8561 41.1381 81.8086 41.1381 78.0493V50.8068C41.1381 47.0475 38.0696 44 34.2844 44Z" fill="#F58A8A"/>
<path d="M27 61H26V59C26 56.24 23.76 54 21 54C18.24 54 16 56.24 16 59V61H15C13.9 61 13 61.9 13 63V73C13 74.1 13.9 75 15 75H27C28.1 75 29 74.1 29 73V63C29 61.9 28.1 61 27 61ZM21 70C19.9 70 19 69.1 19 68C19 66.9 19.9 66 21 66C22.1 66 23 66.9 23 68C23 69.1 22.1 70 21 70ZM24.1 61H17.9V59C17.9 57.29 19.29 55.9 21 55.9C22.71 55.9 24.1 57.29 24.1 59V61Z" fill="white"/>
<defs>
<linearGradient id="paint0_linear" x1="112.273" y1="7.86511" x2="110.029" y2="138.076" gradientUnits="userSpaceOnUse">
<stop stop-color="white" stop-opacity="0"/>
<stop offset="1" stop-color="#64B5F6" stop-opacity="0.6"/>
</linearGradient>
<linearGradient id="paint1_linear" x1="124.409" y1="67.1653" x2="142.559" y2="99.279" gradientUnits="userSpaceOnUse">
<stop stop-color="#E57373"/>
<stop offset="1" stop-color="#AD1457"/>
</linearGradient>
<linearGradient id="paint2_linear" x1="28131.2" y1="39725.5" x2="26219.2" y2="49226.9" gradientUnits="userSpaceOnUse">
<stop stop-color="#E57373"/>
<stop offset="1" stop-color="#AD1457"/>
</linearGradient>
<linearGradient id="paint3_linear" x1="192.122" y1="78.9397" x2="142.589" y2="107.833" gradientUnits="userSpaceOnUse">
<stop stop-color="#FFF8E1"/>
<stop offset="1" stop-color="#FFCC80"/>
</linearGradient>
<linearGradient id="paint4_linear" x1="21642.4" y1="22250.6" x2="18971.7" y2="20437.4" gradientUnits="userSpaceOnUse">
<stop stop-color="#FFF8E1"/>
<stop offset="1" stop-color="#FFCC80"/>
</linearGradient>
<linearGradient id="paint5_linear" x1="128.703" y1="44.4387" x2="101.661" y2="55.652" gradientUnits="userSpaceOnUse">
<stop stop-color="#FFF8E1"/>
<stop offset="1" stop-color="#FFCC80"/>
</linearGradient>
<linearGradient id="paint6_linear" x1="122.486" y1="15.1463" x2="91.0533" y2="57.9109" gradientUnits="userSpaceOnUse">
<stop stop-color="#FFB74D"/>
<stop offset="1" stop-color="#F4511E"/>
</linearGradient>
</defs>
</svg>
