<svg width="0" height="0" class="hidden">
  <symbol viewBox="0 0 16 16"  xmlns="http://www.w3.org/2000/svg" id="arrow">
    <path d="M8 0L6.59 1.41 12.17 7H0v2h12.17l-5.58 5.59L8 16l8-8-8-8z"></path>
  </symbol>
  <symbol viewBox="0 0 24 24" xmlns="http://www.w3.org/2000/svg" id="mail">
    <path d="M20 4H4c-1.1 0-1.99.9-1.99 2L2 18c0 1.1.9 2 2 2h16c1.1 0 2-.9 2-2V6c0-1.1-.9-2-2-2zm0 4l-8 5-8-5V6l8 5 8-5v2z" ></path>
  </symbol>
  <symbol viewBox="0 0 24 24"  xmlns="http://www.w3.org/2000/svg" id="phone">
    <path d="M6.62 10.79c1.44 2.83 3.76 5.14 6.59 6.59l2.2-2.2c.27-.27.67-.36 1.02-.24 1.12.37 2.33.57 3.57.57.55 0 1 .45 1 1V20c0 .55-.45 1-1 1-9.39 0-17-7.61-17-17 0-.55.45-1 1-1h3.5c.55 0 1 .45 1 1 0 1.25.2 2.45.57 3.57.11.35.03.74-.25 1.02l-2.2 2.2z"
      ></path>
  </symbol>
  <symbol viewBox="0 0 24 24"  xmlns="http://www.w3.org/2000/svg" id="site">
    <path d="M11.99 2C6.47 2 2 6.48 2 12s4.47 10 9.99 10C17.52 22 22 17.52 22 12S17.52 2 11.99 2zm6.93 6h-2.95a15.65 15.65 0 0 0-1.38-3.56A8.03 8.03 0 0 1 18.92 8zM12 4.04c.83 1.2 1.48 2.53 1.91 3.96h-3.82c.43-1.43 1.08-2.76 1.91-3.96zM4.26 14C4.1 13.36 4 12.69 4 12s.1-1.36.26-2h3.38c-.08.66-.14 1.32-.14 2 0 .68.06 1.34.14 2H4.26zm.82 2h2.95c.32 1.25.78 2.45 1.38 3.56A7.987 7.987 0 0 1 5.08 16zm2.95-8H5.08a7.987 7.987 0 0 1 4.33-3.56A15.65 15.65 0 0 0 8.03 8zM12 19.96c-.83-1.2-1.48-2.53-1.91-3.96h3.82c-.43 1.43-1.08 2.76-1.91 3.96zM14.34 14H9.66c-.09-.66-.16-1.32-.16-2 0-.68.07-1.35.16-2h4.68c.09.65.16 1.32.16 2 0 .68-.07 1.34-.16 2zm.25 5.56c.6-1.11 1.06-2.31 1.38-3.56h2.95a8.03 8.03 0 0 1-4.33 3.56zM16.36 14c.08-.66.14-1.32.14-2 0-.68-.06-1.34-.14-2h3.38c.16.64.26 1.31.26 2s-.1 1.36-.26 2h-3.38z"
      ></path>
  </symbol>
  <symbol viewBox="0 0 42 41" fill="none" xmlns="http://www.w3.org/2000/svg" id="cam">
    <path d="M34.284 0H6.854C3.069 0 0 3.048 0 6.807v27.242c0 3.76 3.069 6.807 6.854 6.807h27.43c3.786 0 6.854-3.047 6.854-6.807V6.807C41.138 3.047 38.07 0 34.284 0z" fill="#6FCF97"></path>
    <path d="M26.31 14.896H9.98v10.207h16.33V14.896zm4.403 2.032l-3.605 1.515V21.6l3.605 1.515h1.307v-6.187h-1.307z" fill="#fff"></path>
  </symbol>
  <symbol viewBox="0 0 42 41" fill="none" xmlns="http://www.w3.org/2000/svg" id="flake">
    <path d="M34.423 0H6.993C3.206 0 .138 3.048.138 6.807v27.242c0 3.76 3.068 6.807 6.853 6.807h27.431c3.785 0 6.854-3.047 6.854-6.807V6.807c0-3.76-3.069-6.807-6.854-6.807z" fill="#56CCF2"></path>
    <path d="M31 19h-4.17l3.24-3.24-1.41-1.42L24 19h-2v-2l4.66-4.66-1.42-1.41L22 14.17V10h-2v4.17l-3.24-3.24-1.42 1.41L20 17v2h-2l-4.66-4.66-1.41 1.42L15.17 19H11v2h4.17l-3.24 3.24 1.41 1.42L18 21h2v2l-4.66 4.66 1.42 1.41L20 25.83V30h2v-4.17l3.24 3.24 1.42-1.41L22 23v-2h2l4.66 4.66 1.41-1.42L26.83 21H31v-2z"
      fill="#fff"></path>
  </symbol>
</svg>